PathFileType	4	TRC_standard.trc
DataRate	CameraRate	NumFrames	NumMarkers	Units	OrigDataRate	OrigDataStartFrame	OrigNumFrames
100.0	100.0	6	37	mm	100.0	1676	2234	
Frame#	Time	T10			C7			CLAV			RACR1			LACR1			RPSI			LPSI			RASI			LASI			LTH2			LTH3			LTH1			RTH2			RTH3			RTH1			RLFC			RMFC			RTB1			RTB3			RTB2			LLFC			LMFC			LTB1			LTB3			LTB2			LLMAL			LCAL			LMMAL			RLMAL			RMMAL			RCAL			RMT5			RMT1			RToe			LMT5			LMT1			LToe			
		X1	Y1	Z1	X2	Y2	Z2	X3	Y3	Z3	X4	Y4	Z4	X5	Y5	Z5	X6	Y6	Z6	X7	Y7	Z7	X8	Y8	Z8	X9	Y9	Z9	X10	Y10	Z10	X11	Y11	Z11	X12	Y12	Z12	X13	Y13	Z13	X14	Y14	Z14	X15	Y15	Z15	X16	Y16	Z16	X17	Y17	Z17	X18	Y18	Z18	X19	Y19	Z19	X20	Y20	Z20	X21	Y21	Z21	X22	Y22	Z22	X23	Y23	Z23	X24	Y24	Z24	X25	Y25	Z25	X26	Y26	Z26	X27	Y27	Z27	X28	Y28	Z28	X29	Y29	Z29	X30	Y30	Z30	X31	Y31	Z31	X32	Y32	Z32	X33	Y33	Z33	X34	Y34	Z34	X35	Y35	Z35	X36	Y36	Z36	X37	Y37	Z37	
1676	16.75	710.3208	1227.2756	-484.53757	710.6333	1482.6107	-354.49219	735.14215	1324.7085	-262.92099	558.547	1426.3922	-310.13678	894.94861	1432.5071	-360.95334	670.57697	1013.7847	-555.17804	758.17725	1011.1995	-553.90118	586.23309	973.65302	-323.5116	840.10986	978.5791	-319.03024	919.6731	779.34668	-341.72934	887.63196	723.35486	-282.5585	870.4798	865.29889	-309.86676	597.90735	685.26306	-371.0025	550.60193	756.70184	-383.53183	608.8241	797.97607	-326.823	593.39709	488.74615	-502.73682				645.03717	373.99228	-503.72195	621.42719	304.71991	-548.38696	650.6134	255.33592	-560.68652	868.57648	513.81641	-263.46014				825.51385	416.52423	-191.04929	854.97864	345.83923	-201.87508	817.66302	297.38962	-178.29204	840.15558	86.416939	-192.85857	762.2973	102.95628	-121.02552	791.63354	33.003086	-222.31268	638.14764	92.569908	-672.71552				674.82629	65.402786	-746.99542	640.56879	44.296196	-572.86267	721.09735	48.588169	-547.37701				857.30505	71.159157	-76.997314	797.90887	94.383011	-49.049767			
1677	16.76	711.27954	1226.9033	-484.15289	711.36414	1482.053	-353.68842	735.80188	1323.9469	-262.26031	559.21655	1425.6204	-309.51187	895.71667	1431.8599	-360.08304	672.0708	1013.4048	-555.06506	759.66205	1010.9209	-553.59937	586.93579	972.91791	-323.6983	840.82391	978.08575	-318.52289	919.72852	778.26172	-340.53143	887.19366	722.54834	-282.2746	870.93256	864.70416	-309.08218	598.62762	684.40161	-372.97705	551.56549	756.04236	-385.0228	609.53577	796.97046	-327.80573	594.13098	488.72397	-506.05719				645.42615	373.84344	-508.28326	621.73291	305.20749	-553.80432	650.85022	255.83783	-566.64197	867.83136	512.99878	-263.70349				823.7179	415.94366	-191.37495	853.50165	345.17725	-201.37607	815.82611	296.82861	-178.26596	839.75153	85.425522	-191.82137	756.61176	102.55518	-121.21564	789.42126	31.567902	-228.15096	638.01288	94.383369	-680.55115				674.71887	68.182144	-755.18243	640.42792	44.350937	-581.27893	720.90857	48.508518	-555.82281				857.2511	70.616508	-71.355598	793.95599	93.036095	-43.941841			
1678	16.77	712.28229	1226.5756	-483.68121	712.13867	1481.5515	-352.82111	736.50452	1323.2548	-261.52322	559.92902	1424.9098	-308.82819	896.53033	1431.2744	-359.12534	673.55609	1013.0626	-554.81842	761.14417	1010.7009	-553.18481	587.70593	972.22125	-323.74377	841.59485	977.66284	-317.92215	919.75519	777.22223	-339.12735	886.81464	721.97333	-281.99536	871.42999	864.18402	-308.1987	599.41632	683.56812	-374.68433	552.59058	755.40118	-386.27451	610.33142	796.01556	-328.60199	594.89081	488.70581	-509.05472				645.79999	373.70236	-512.55945	622.02692	305.76334	-558.98145	651.06378	256.41013	-572.38928	867.12	512.24359	-263.95102				821.9726	415.27686	-192.00282	852.04993	344.47513	-201.35846	814.02631	296.16229	-178.86314	838.99225	84.572113	-192.03748	752.14893	101.6836	-122.83451	787.55511	30.507298	-233.79449	637.85614	96.357162	-688.28131				674.61273	71.210052	-763.25116	640.28174	44.394138	-589.71057	720.70947	48.413338	-564.30505				856.39966	69.579849	-68.779877	790.32477	91.36805	-41.475574			
1679	16.78	713.32599	1226.296	-483.12521	712.95477	1481.1115	-351.89563	737.24878	1322.6388	-260.71356	560.68317	1424.2677	-308.0889	897.38721	1430.7571	-358.08478	675.02637	1012.7627	-554.44006	762.61749	1010.5453	-552.65942	588.54419	971.56696	-323.64893	842.42261	977.31702	-317.23077	919.78461	776.2887	-337.58612	886.4848	721.58826	-281.66727	871.97632	863.74548	-307.22238	600.26923	682.76727	-376.10712	553.67322	754.78082	-387.27625	611.21136	795.11768	-329.20682	595.66302	488.68796	-511.70773				646.14478	373.56677	-516.526	622.29736	306.38834	-563.89313	651.23969	257.0553	-577.90283	866.44946	511.55771	-264.20499				820.29077	414.53391	-192.91827	850.63702	343.73672	-201.79893	812.27856	295.39868	-180.04642	837.98169	83.830551	-193.44951	748.70508	100.46133	-125.67936	786.04016	29.801193	-239.27286	637.67249	98.500481	-695.88037				674.50824	74.508163	-771.16516	640.13287	44.425865	-598.16425	720.5014	48.303654	-572.83575				854.92975	68.117409	-68.810631	787.02649	89.393379	-41.428654			
1680	16.79	714.40741	1226.068	-482.48849	713.81018	1480.7366	-350.91782	738.03314	1322.1057	-259.83594	561.47723	1423.6997	-307.298	898.28467	1430.313	-356.96637	676.47595	1012.5096	-553.93365	764.07672	1010.4588	-552.02661	589.45111	970.95905	-323.41708	843.30603	977.05402	-316.45255	919.84509	775.50702	-335.96707	886.20038	721.35803	-281.25177	872.57611	863.3941	-306.16101	601.18036	682.00409	-377.22964	554.8078	754.18408	-388.01929	612.17432	794.28363	-329.61731	596.43274	488.66629	-513.99426				646.44574	373.43427	-520.15662	622.53149	307.0827	-568.51245	651.36292	257.77524	-583.15411	865.82776	510.94562	-264.47168				818.68494	413.72565	-194.10722	849.27655	342.96671	-202.6725	810.59753	294.54849	-181.77536	836.81683	83.177986	-195.97812	746.08582	98.991508	-129.55641	784.86365	29.416061	-244.67679	637.4566	100.82171	-703.31842				674.40466	78.098007	-778.88202	639.98474	44.447308	-606.64514	720.28717	48.181808	-581.42615				853.03491	66.310028	-70.965073	784.06	87.136566	-43.502136			
1681	16.8	715.5235	1225.8943	-481.77533	714.7027	1480.4307	-349.8941	738.85547	1321.6611	-258.89554	562.30927	1423.2112	-306.46017	899.2196	1429.9468	-355.77582	677.90015	1012.3073	-553.30505	765.51733	1010.4455	-551.29108	590.4259	970.40106	-323.0535	844.24371	976.87817	-315.59207	919.9613	774.90875	-334.31924	885.96411	721.25421	-280.72595	873.23315	863.13318	-305.02377	602.14124	681.28394	-378.03781	555.98706	753.61414	-388.49786	613.21735	793.5202	-329.8324	597.18427	488.63632	-515.89197				646.68829	373.30228	-523.4245	622.71637	307.84555	-572.81049	651.41779	258.57098	-588.11206	865.26312	510.40942	-264.76151				817.16736	412.86301	-195.55638	847.98187	342.17026	-203.95331	808.99701	293.62418	-184.00748	835.58276	82.595695	-199.52629	744.11505	97.35984	-134.29204	783.99927	29.309122	-250.12848	637.2027	103.32796	-710.56104				674.30042	82.000023	-786.35492	639.84082	44.461094	-615.15619	720.06958	48.051735	-590.08563				850.90015	64.243896	-74.787804	781.41522	84.633247	-47.353992			
